<svg width="256" height="256" viewBox="0 0 256 256" fill="none" xmlns="http://www.w3.org/2000/svg">
<path d="M233.54 142.23C232.514 141.202 231.227 140.472 229.818 140.12C228.408 139.767 226.93 139.805 225.54 140.23C210.286 144.842 194.066 145.228 178.61 141.349C163.153 137.469 149.038 129.469 137.77 118.2C126.501 106.932 118.501 92.8173 114.621 77.3606C110.742 61.9039 111.129 45.6842 115.74 30.4299C116.168 29.04 116.209 27.5596 115.859 26.1481C115.508 24.7365 114.78 23.4472 113.751 22.4188C112.723 21.3904 111.434 20.6618 110.022 20.3114C108.611 19.961 107.13 20.0019 105.74 20.4299C84.6505 26.8904 66.1356 39.8379 52.8302 57.4299C41.1943 72.8785 34.0967 91.2657 32.3348 110.526C30.5729 129.786 34.2165 149.155 42.8563 166.459C51.496 183.762 64.7896 198.314 81.2435 208.478C97.6974 218.643 116.66 224.018 136 224C158.564 224.069 180.527 216.734 198.52 203.12C216.112 189.815 229.06 171.3 235.52 150.21C235.943 148.825 235.983 147.351 235.634 145.946C235.285 144.541 234.562 143.256 233.54 142.23ZM188.9 190.34C171.956 203.103 150.971 209.315 129.81 207.833C108.648 206.351 88.7342 197.275 73.7336 182.276C58.7329 167.276 49.6554 147.363 48.1719 126.202C46.6884 105.041 52.899 84.0555 65.6602 67.1099C73.9742 56.1305 84.7229 47.2304 97.0602 41.1099C96.3574 46.0422 96.0032 51.0179 96.0002 55.9999C96.0293 83.5735 106.996 110.009 126.493 129.507C145.991 149.004 172.427 159.971 200 160C204.992 159.998 209.978 159.644 214.92 158.94C208.794 171.279 199.887 182.028 188.9 190.34Z" fill="#c5c5c5"/>
</svg>
