<svg width="27" height="26" viewBox="0 0 27 26" fill="none" xmlns="http://www.w3.org/2000/svg">
<g id="Dollar">
<path id="Vector" d="M12.6548 9.96309V11.978C11.8992 11.7891 11.3955 11.3588 11.3955 10.9705C11.3955 10.5718 11.8992 10.1415 12.6548 9.96309Z" fill="black"/>
<path id="Vector_2" d="M15.4878 14.7485C15.4878 15.1368 14.9841 15.5671 14.2285 15.756V13.741C14.9841 13.9194 15.4878 14.3497 15.4878 14.7485Z" fill="black"/>
<path id="Vector_3" d="M20.6726 5.61843C18.7416 3.68746 16.1705 2.62753 13.442 2.62753C10.7134 2.62753 8.14232 3.68746 6.21135 5.61843C4.26989 7.54939 3.20996 10.1205 3.20996 12.8596C3.20996 14.2028 3.47232 15.5251 3.98655 16.774C4.50077 18.0228 5.25637 19.1352 6.21135 20.0902C7.15585 21.0452 8.27875 21.7903 9.52758 22.3045C10.7764 22.8292 12.0882 23.0916 13.442 23.0916C14.7958 23.0916 16.1076 22.8292 17.3564 22.3045C18.6052 21.7903 19.7281 21.0452 20.6726 20.0902C21.6276 19.1352 22.3832 18.0228 22.8974 16.774C23.4116 15.5251 23.674 14.2028 23.674 12.8596C23.674 10.1205 22.6141 7.54939 20.6726 5.61843ZM14.2291 17.3616V17.582C14.2291 18.0123 13.8723 18.3691 13.442 18.3691C13.0117 18.3691 12.6549 18.0123 12.6549 17.582V17.3511C11.7314 17.2042 10.9128 16.8054 10.3881 16.2073C10.1572 15.9344 10.1363 15.5356 10.3461 15.2418C10.556 14.9374 10.9338 14.8325 11.2696 14.9584L12.6549 15.4831V13.5732C11.0178 13.3213 9.82142 12.2614 9.82142 10.9706C9.82142 9.66926 11.0178 8.61982 12.6549 8.35746V8.13708C12.6549 7.69632 13.0117 7.35 13.442 7.35C13.8723 7.35 14.2291 7.69632 14.2291 8.13708V8.35746C15.1526 8.51488 15.9711 8.91367 16.4958 9.50135C16.7267 9.77421 16.7477 10.173 16.5378 10.4773C16.3909 10.6872 16.1495 10.8132 15.8977 10.8132C15.8032 10.8132 15.7088 10.7922 15.6143 10.7607L14.2291 10.2255V12.1354C15.8662 12.3873 17.0625 13.4472 17.0625 14.7485C17.0625 16.0498 15.8662 17.0993 14.2291 17.3616Z" fill="black"/>
</g>
</svg>
