<svg width="26" height="26" viewBox="0 0 26 26" fill="none" xmlns="http://www.w3.org/2000/svg">
<g id="Voice Id">
<path id="Vector" d="M19.5349 2.60353H6.58476C4.37045 2.60353 2.56543 4.40857 2.56543 6.62288V19.573C2.56543 21.7873 4.37045 23.5923 6.58476 23.5923H19.5349C21.4448 23.5923 23.04 22.249 23.4492 20.465C23.5122 20.3495 23.5542 20.2236 23.5542 20.0872V6.62288C23.5542 4.40857 21.7492 2.60353 19.5349 2.60353ZM20.3219 14.1788C20.3219 14.6091 19.9651 14.9659 19.5349 14.9659C19.0941 14.9659 18.7478 14.6091 18.7478 14.1788V12.017C18.7478 11.5867 19.0941 11.2299 19.5349 11.2299C19.9651 11.2299 20.3219 11.5867 20.3219 12.017V14.1788ZM5.79769 14.1788V12.017C5.79769 11.5867 6.15449 11.2299 6.58476 11.2299C7.02553 11.2299 7.37184 11.5867 7.37184 12.017V14.1788C7.37184 14.6091 7.02553 14.9659 6.58476 14.9659C6.15449 14.9659 5.79769 14.6091 5.79769 14.1788ZM17.0791 9.86565V16.3302C17.0791 16.771 16.7328 17.1173 16.2921 17.1173C15.8618 17.1173 15.505 16.771 15.505 16.3302V9.86565C15.505 9.42488 15.8618 9.07857 16.2921 9.07857C16.7328 9.07857 17.0791 9.42488 17.0791 9.86565ZM13.8469 7.7038V18.492C13.8469 18.9223 13.4901 19.2791 13.0598 19.2791C12.6295 19.2791 12.2727 18.9223 12.2727 18.492V7.7038C12.2727 7.27353 12.6295 6.91673 13.0598 6.91673C13.4901 6.91673 13.8469 7.27353 13.8469 7.7038ZM10.6146 9.86565V16.3302C10.6146 16.771 10.2578 17.1173 9.82756 17.1173C9.38679 17.1173 9.04048 16.771 9.04048 16.3302V9.86565C9.04048 9.42488 9.38679 9.07857 9.82756 9.07857C10.2578 9.07857 10.6146 9.42488 10.6146 9.86565Z" fill="black"/>
</g>
</svg>
